<svg width="48" height="48" viewBox="0 0 48 48" fill="none" xmlns="http://www.w3.org/2000/svg">
<rect width="48" height="48" rx="24" fill="#437EF7"/>
<path d="M18.2769 16.3906C18.5268 15.8684 18.6667 15.2835 18.6667 14.666C18.6667 12.4569 16.8759 10.666 14.6667 10.666C12.4576 10.666 10.6667 12.4569 10.6667 14.666C10.6667 16.8752 12.4576 18.666 14.6667 18.666C15.2843 18.666 15.8691 18.5261 16.3913 18.2762L18.4379 20.3228C17.7399 21.3767 17.3334 22.6406 17.3334 23.9993C17.3334 25.3581 17.7399 26.622 18.4379 27.6759L16.6908 29.423C16.4705 29.3641 16.239 29.3327 16.0001 29.3327C14.5273 29.3327 13.3334 30.5266 13.3334 31.9993C13.3334 33.4721 14.5273 34.666 16.0001 34.666C17.4728 34.666 18.6667 33.4721 18.6667 31.9993C18.6667 31.7605 18.6353 31.5289 18.5764 31.3086L20.3236 29.5615C21.3775 30.2595 22.6413 30.666 24.0001 30.666C25.3589 30.666 26.6227 30.2595 27.6766 29.5615L29.7232 31.6081C29.4734 32.1303 29.3334 32.7152 29.3334 33.3327C29.3334 35.5418 31.1243 37.3327 33.3334 37.3327C35.5426 37.3327 37.3334 35.5418 37.3334 33.3327C37.3334 31.1235 35.5426 29.3327 33.3334 29.3327C32.7159 29.3327 32.131 29.4726 31.6089 29.7225L29.5622 27.6759C30.2602 26.622 30.6667 25.3581 30.6667 23.9993C30.6667 22.6406 30.2602 21.3767 29.5622 20.3228L31.3094 18.5757C31.5297 18.6346 31.7612 18.666 32.0001 18.666C33.4728 18.666 34.6667 17.4721 34.6667 15.9993C34.6667 14.5266 33.4728 13.3327 32.0001 13.3327C30.5273 13.3327 29.3334 14.5266 29.3334 15.9993C29.3334 16.2382 29.3648 16.4698 29.4237 16.6901L27.6766 18.4372C26.6227 17.7392 25.3589 17.3327 24.0001 17.3327C22.6413 17.3327 21.3775 17.7392 20.3236 18.4372L18.2769 16.3906Z" fill="white"/>
</svg>
