<svg width="48" height="48" viewBox="0 0 48 48" fill="none" xmlns="http://www.w3.org/2000/svg">
<rect width="48" height="48" rx="24" fill="#437EF7"/>
<path fill-rule="evenodd" clip-rule="evenodd" d="M9.33325 24.0007C9.33325 15.9005 15.8997 9.33398 23.9999 9.33398C32.1001 9.33398 38.6666 15.9005 38.6666 24.0007C38.6666 32.1008 32.1001 38.6673 23.9999 38.6673C15.8997 38.6673 9.33325 32.1008 9.33325 24.0007ZM23.9999 13.334C24.7363 13.334 25.3333 13.9309 25.3333 14.6673V19.8525C25.3333 20.5889 24.7363 21.1858 23.9999 21.1858C23.2635 21.1858 22.6666 20.5889 22.6666 19.8525V14.6673C22.6666 13.9309 23.2635 13.334 23.9999 13.334ZM33.3333 25.334C34.0696 25.334 34.6666 24.737 34.6666 24.0007C34.6666 23.2643 34.0696 22.6673 33.3333 22.6673H28.1481C27.4117 22.6673 26.8147 23.2643 26.8147 24.0007C26.8147 24.737 27.4117 25.334 28.1481 25.334H33.3333ZM23.9999 26.8155C24.7363 26.8155 25.3333 27.4124 25.3333 28.1488V33.334C25.3333 34.0704 24.7363 34.6673 23.9999 34.6673C23.2635 34.6673 22.6666 34.0704 22.6666 33.334V28.1488C22.6666 27.4124 23.2635 26.8155 23.9999 26.8155ZM19.8518 25.334C20.5881 25.334 21.1851 24.737 21.1851 24.0007C21.1851 23.2643 20.5881 22.6673 19.8518 22.6673H14.6666C13.9302 22.6673 13.3333 23.2643 13.3333 24.0007C13.3333 24.737 13.9302 25.334 14.6666 25.334H19.8518Z" fill="white"/>
</svg>
